<?xml version="1.0" encoding="utf-8"?>
<!-- Generator: Adobe Illustrator 16.0.0, SVG Export Plug-In . SVG Version: 6.00 Build 0)  -->
<!DOCTYPE svg PUBLIC "-//W3C//DTD SVG 1.1//EN" "http://www.w3.org/Graphics/SVG/1.1/DTD/svg11.dtd">
<svg version="1.1" id="图层_1" xmlns="http://www.w3.org/2000/svg" xmlns:xlink="http://www.w3.org/1999/xlink" x="0px" y="0px"
	 width="318.81px" height="119.055px" viewBox="0 0 318.81 119.055" enable-background="new 0 0 318.81 119.055"
	 xml:space="preserve">
<g>
	<path d="M155.475,16.717V32.75h-2.777V19.801h-5.239v12.026l-3.392-2.158l-9.746,12.332l-4.131,5.859l4.623,3.085l2.773-4.006
		h0.308v26.519h6.787V49.405l0.178-10.794l2.293-3.702h0.306v2.158h21.583V19.8h-5.238v12.947h-2.773v-16.03H155.475L155.475,16.717
		z"/>
	<path d="M142.524,17.333c-1.571,2.378-3.472,4.553-5.239,6.786l-3.388,4.318c-0.849,1.058-2.609,2.592-2.763,4.004
		c-0.156,1.411,2.677,3.529,3.963,2.854c1.243-0.648,2.171-2.388,3.006-3.467c2-2.591,4.042-5.153,6.091-7.709
		c0.725-0.907,2.469-2.414,2.333-3.687C146.365,18.918,143.79,17.661,142.524,17.333z"/>
	<path d="M266.177,18.26v4.007h47.792V18.26H266.177z"/>
	<path d="M180.454,18.567c-1.442-0.487-5.88-2.058-7.231-1.195c-0.866,0.555-0.924,2.442-1.136,3.355
		c-0.729,3.18-1.304,6.398-2.123,9.559h19.12v-4.008h-10.482L180.454,18.567z"/>
	<path d="M253.533,41.387l-7.711-8.019V33.06c1.946-1.397,5.457-4.521,6.292-6.783c0.939-2.542,0.179-6.55,0.179-9.252h-22.505
		v4.316h14.796c0,1.733-1.026,7.457-4.007,5.97c-1.67-0.833-3.229-4.669-5.241-4.454c-0.817,0.085-1.569,0.889-2.161,1.388
		c-3.78,3.225,0.149,6.524,3.396,8.81v0.311l-7.295,8.326l4.206,4.318h0.311c1.47-1.473,5.294-7.076,7.4-7.076
		c0.958,0,5.646,5.169,7.093,7.076l-48.724,1.542v4.316l22.202-0.616v22.203h8.021V62.967l21.273,10.179l2.464-6.166l-10.481-4.933
		v-0.619l7.705-4.007l-2.465-5.243c-4.712,1.963-10.094,7.518-15.113,5.012c-1.184-0.599-2.913-1.127-3.289-2.559
		c-0.306-1.133-0.094-2.519-0.094-3.685l21.273-0.619v-4.315h-2.154l4.618-4.317v-0.309L253.533,41.387L253.533,41.387z"/>
	<path d="M217.146,45.7h7.71v-3.387l3.699-0.311l-0.309-4.316l-3.39,0.309V21.343h3.082v-4.317h-30.521v4.317h3.08v18.501h-3.39
		l0.311,4.319l19.734-1.234v2.771L217.146,45.7L217.146,45.7z M207.896,39.227V36.14h8.324v-4.316h-8.324V28.74h8.324v-4.008h-8.324
		v-3.392h9.253v17.268L207.896,39.227z"/>
	<path d="M176.444,33.677l-5.549,1.853l3.702,11.409l1.736,5.855l-1.736,5.86l-4.316,13.263l5.851,1.54l3.399-10.794h0.308
		l3.702,10.794l5.547-1.54c-0.933-6.298-5.966-12.788-5.966-19.124c0-3.813,2.706-8.717,3.906-12.333
		c0.413-1.228,1.374-2.966,1.248-4.275c-0.147-1.533-4.118-2.107-5.356-2.511l-3.084,9.253h-0.306L176.444,33.677z"/>
	<path d="M147.459,41.078v4.316h21.891v-4.316H147.459z"/>
	<path d="M148.382,48.786l-0.052,14.799l-2.105,8.637l6.79,0.924c1.59-6.955,2.156-12.882,2.156-20.044h5.239v20.044h9.248v-4.007
		h-2.467V48.786H148.382z"/>
	<path d="M197.415,58.964l1.232,4.935c6.892-0.317,15.017-4.035,21.582-6.173l-1.541-4.933L197.415,58.964z"/>
	<path d="M197.388,68.215l1.23,4.931l21.576-6.468l-1.54-4.935C211.753,63.338,203.861,65.347,197.388,68.215z"/>
	<path d="M284.184,43.86c0.194-0.127,0.421-0.229,0.67-0.315h8.768h2.194h22.474v-4.009h-56.427v4.009h13.257l-11.718,29.602h53.038
		c-1.132-7.521-6.199-14.991-8.638-22.201c-1.638,0.246-6.21,1.345-7.049,2.904c-0.587,1.095,0.72,3.16,1.125,4.188
		c1.442,3.609,2.977,7.174,4.384,10.792h-32.684c2.483-6.061,5.019-12.111,7.462-18.193C281.75,48.861,282.513,44.934,284.184,43.86
		z"/>
</g>
<g>
	<path d="M144.917,106.426h-2.755l-1.955-6.103c-0.223-0.722-0.418-1.377-0.595-2.013c-0.208,0.756-0.422,1.434-0.621,2.042
		l-2.058,6.076h-2.756l-3.947-13.076h3.347l1.724,6.491c0.052,0.216,0.104,0.433,0.155,0.645c0.1,0.408,0.198,0.813,0.29,1.204
		c0.15-0.518,0.308-1.041,0.472-1.58l0.082-0.278l2.081-6.479h2.609l1.979,6.387c0.207,0.646,0.392,1.277,0.561,1.895
		c0.155-0.632,0.327-1.252,0.498-1.859l1.823-6.422h3.278L144.917,106.426z"/>
	<path d="M163.407,95.291c-0.96-1.469-2.479-2.242-4.386-2.242c-3.645,0-6.191,2.898-6.191,7.038c0,1.928,0.598,3.568,1.724,4.746
		c1.152,1.205,2.785,1.842,4.716,1.842c2.009,0,3.415-0.444,4.243-0.817l0.4-0.181l0.006-2.841l-1.215,0.517
		c-0.679,0.276-1.583,0.562-3.133,0.562c-0.995,0-3.244-0.318-3.542-3.128l8.295,0.028l0.084-0.426
		c0.055-0.282,0.085-0.659,0.085-1.144C164.492,98.552,164.386,96.791,163.407,95.291z M156.127,98.169
		c0.229-0.904,0.891-2.501,2.722-2.501c0.703,0,1.265,0.214,1.677,0.633c0.542,0.554,0.725,1.33,0.781,1.865L156.127,98.169
		L156.127,98.169z"/>
	<path d="M176.864,93.075c-1.456,0-2.705,0.45-3.625,1.286v-6.629h-3.236v15.063c0,0.743-0.012,2.127-0.095,3.061l-0.054,0.57h2.962
		l0.07-1.133c0.924,0.937,2.143,1.408,3.639,1.408c1.558,0,3.013-0.631,4.097-1.773c1.207-1.271,1.849-3.076,1.849-5.213
		C182.458,95.802,180.158,93.075,176.864,93.075z M178.346,102.836c-0.545,0.712-1.313,1.075-2.277,1.075
		c-1.312,0-2.396-0.849-2.77-2.157c-0.039-0.207-0.062-0.438-0.062-0.672v-2.16c0-0.273,0.034-0.52,0.106-0.781V98.13
		c0.347-1.346,1.5-2.291,2.801-2.291c2.251,0,3.052,2.142,3.052,3.973C179.198,101.069,178.903,102.113,178.346,102.836z"/>
	<path d="M191.078,106.698c-1.321,0-2.654-0.339-3.644-0.92l-0.361-0.211v-2.495c0,0,3.066,0.935,4.059,0.935
		c0.665,0,1.785-0.162,1.785-1.261c0-0.678-0.287-1.129-1.869-1.725c-2.349-0.854-3.545-2.165-3.545-3.895
		c0-2.35,1.966-4.054,4.673-4.054c1.221,0,2.425,0.311,3.223,0.831l0.339,0.219v2.645c0,0-2.866-1.033-3.609-1.033
		c-0.901,0-1.46,0.43-1.46,1.118c0,0.593,0.267,0.941,1.922,1.571c1.624,0.608,3.493,1.622,3.493,4.12
		c0,1.227-0.471,2.27-1.374,3.021C193.814,106.307,192.558,106.698,191.078,106.698z"/>
	<path d="M211.879,94.951c-1.15-1.229-2.731-1.876-4.574-1.876c-1.794,0-3.426,0.655-4.593,1.84c-1.24,1.255-1.895,3.01-1.895,5.072
		c0,1.964,0.632,3.653,1.818,4.883c1.141,1.18,2.727,1.828,4.471,1.828h0.027c3.125,0,6.486-2.174,6.486-6.939
		C213.619,97.833,213.018,96.168,211.879,94.951z M207.181,104.008h-0.025c-1.783,0-3.079-1.724-3.079-4.098
		c0-2.062,0.978-4.147,3.156-4.147c2.435,0,3.079,2.664,3.079,4.073C210.309,102.254,208.994,104.008,207.181,104.008z"/>
	<path d="M222.613,106.426h-3.233V96.062h-1.668v-2.714h1.668v-0.046c0-2.013,0.545-3.598,1.579-4.579
		c0.835-0.814,1.997-1.259,3.269-1.259c0.978,0,1.712,0.237,2.062,0.387l-0.061,2.922l-0.62-0.268
		c-0.266-0.115-0.617-0.229-1.208-0.229c-0.499,0-1.811,0-1.811,2.956v0.12h2.905v2.711h-2.885L222.613,106.426L222.613,106.426z"/>
	<path d="M234.788,106.698c-1.13,0-2.105-0.389-2.747-1.088l-0.005-0.009c-0.655-0.738-0.979-1.885-0.979-3.503V96.06h-1.862v-2.714
		h1.862v-3.072h3.189v3.072h3.13v2.715h-3.13v5.964c0,1.672,0.55,1.81,1.118,1.81c0.582,0,0.868-0.049,1.114-0.126l0.8-0.201v2.729
		l-0.373,0.131C236.556,106.493,235.818,106.698,234.788,106.698z"/>
	<path d="M260.706,106.698h-0.026c-1.122,0-1.965-0.897-1.965-2.091c0-1.192,0.865-2.09,2.017-2.09c1.15,0,1.992,0.879,1.992,2.09
		C262.721,105.821,261.876,106.698,260.706,106.698z"/>
	<path d="M273.876,106.698c-3.893,0-6.514-2.688-6.514-6.691c0-4.082,2.873-6.937,6.985-6.937c1.456,0,2.674,0.382,3.282,0.708
		l0.375,0.205v2.784c0,0-2.109-1.014-3.657-0.91c-2.741,0.188-3.724,2.18-3.724,4.047c0,2.379,1.479,3.733,3.646,3.974
		c1.417,0.154,3.664-0.785,3.664-0.785v2.671l-0.379,0.178C276.802,106.312,275.437,106.698,273.876,106.698z"/>
	<path d="M293.26,94.951c-1.149-1.229-2.732-1.876-4.571-1.876c-1.797,0-3.424,0.655-4.597,1.84c-1.24,1.255-1.894,3.01-1.894,5.072
		c0,1.964,0.63,3.653,1.818,4.883c1.14,1.18,2.725,1.828,4.471,1.828h0.025c3.126,0,6.49-2.174,6.49-6.939
		C295.003,97.833,294.401,96.168,293.26,94.951z M288.565,104.008h-0.027c-1.782,0-3.078-1.724-3.078-4.098
		c0-2.062,0.975-4.147,3.152-4.147c2.437,0,3.081,2.664,3.081,4.073C291.691,102.254,290.376,104.008,288.565,104.008z"/>
	<path d="M318.808,106.426h-3.189v-7.331c0-2.11-0.701-3.18-2.085-3.18c-1.1,0-1.823,0.861-2.114,1.61
		c-0.092,0.308-0.146,0.641-0.146,0.923v7.98h-3.189v-7.731c0-0.834-0.193-2.779-1.984-2.779c-1.073,0-1.926,0.916-2.21,1.819
		l-0.016,0.032c-0.092,0.234-0.137,0.538-0.137,0.88v7.78h-3.19v-9.298c0-1.251-0.049-2.253-0.099-3.227l-0.027-0.551h2.967
		l0.055,1.097c0.889-0.911,2.04-1.372,3.418-1.372c1.453,0,2.723,0.719,3.466,1.925c0.283-0.355,0.622-0.677,1.013-0.973
		c0.867-0.655,1.774-0.95,2.951-0.95c0.654,0,1.91,0.153,2.965,1.195c1.021,1.009,1.539,2.54,1.539,4.551v7.602L318.808,106.426
		L318.808,106.426z"/>
	<path d="M252.209,91.001c-1.049-1.343-2.542-2.05-4.327-2.05c-1.704,0-3.268,0.671-4.393,1.891c-1.076,1.162-1.67,2.709-1.67,4.353
		c0,3.186,2.228,5.493,5.298,5.493c1.131,0,2.153-0.286,3.01-0.838c-0.351,1.008-0.887,1.837-1.601,2.48l-0.016,0.017
		c-0.81,0.788-1.871,1.28-3.072,1.419h-0.011c-0.522,0.072-0.961,0.104-1.347,0.104c-0.106,0-0.215-0.003-0.321-0.01l-0.553-0.029
		v2.843l0.501,0.024c0.092,0.007,0.195,0.01,0.303,0.01c0.473,0,1.099-0.049,1.799-0.136c1.873-0.215,3.697-1.054,5.005-2.311
		c1.342-1.318,2.937-3.775,2.937-7.979C253.754,94.123,253.217,92.297,252.209,91.001z M247.619,97.97
		c-1.583,0-2.868-1.41-2.868-3.152c0-1.743,1.283-3.153,2.868-3.153c1.586,0,2.871,1.409,2.871,3.153
		C250.49,96.56,249.205,97.97,247.619,97.97z"/>
</g>
<linearGradient id="SVGID_1_" gradientUnits="userSpaceOnUse" x1="1797.0222" y1="-2782.7375" x2="1797.0222" y2="-2901.7927" gradientTransform="matrix(1 0 0 -1 -1742.8418 -2782.7388)">
	<stop  offset="0.1" style="stop-color:#52E5E7"/>
	<stop  offset="0.9" style="stop-color:#130CB7"/>
</linearGradient>
<path fill="url(#SVGID_1_)" d="M54.185,106.354l54.179-31.275v5.635c0,5.496-3.903,12.252-8.667,15.003l-36.842,21.274
	c-4.775,2.751-12.575,2.751-17.339,0L8.669,95.717C3.904,92.966,0,86.211,0,80.714v-5.635L54.185,106.354z M99.69,23.149
	L62.849,1.883c-1.695-0.979-3.774-1.602-5.964-1.884v14.082l37.931,21.892L56.892,57.867v15.64l51.472-29.713v-5.633
	C108.358,32.667,104.46,25.907,99.69,23.149z M51.469,73.515L0,43.8v-5.631c0-5.504,3.905-12.263,8.669-15.015l36.84-21.268
	c1.696-0.975,3.773-1.604,5.962-1.884v14.091L13.558,35.99l37.91,21.884L51.469,73.515L51.469,73.515z M56.886,79.782l51.474-29.715
	v6.378L56.886,86.108V79.782z M56.886,92.186l51.474-29.666v6.272L56.886,98.51V92.186z"/>
</svg>
