<?xml version="1.0" encoding="UTF-8" standalone="no"?><svg xmlns="http://www.w3.org/2000/svg" xmlns:xlink="http://www.w3.org/1999/xlink" contentScriptType="application/ecmascript" contentStyleType="text/css" height="366px" preserveAspectRatio="none" style="width:337px;height:366px;" version="1.1" viewBox="0 0 337 366" width="337px" zoomAndPan="magnify"><defs><filter height="300%" id="f138di7phjcoow" width="300%" x="-1" y="-1"><feGaussianBlur result="blurOut" stdDeviation="2.0"/><feColorMatrix in="blurOut" result="blurOut2" type="matrix" values="0 0 0 0 0 0 0 0 0 0 0 0 0 0 0 0 0 0 .4 0"/><feOffset dx="4.0" dy="4.0" in="blurOut2" result="blurOut3"/><feBlend in="SourceGraphic" in2="blurOut3" mode="normal"/></filter></defs><g><ellipse cx="174.5" cy="20" fill="#000000" filter="url(#f138di7phjcoow)" rx="10" ry="10" style="stroke: none; stroke-width: 1.0;"/><rect fill="#FEFECE" filter="url(#f138di7phjcoow)" height="33.7988" rx="12.5" ry="12.5" style="stroke: #A80036; stroke-width: 1.5;" width="99" x="125" y="50"/><text fill="#000000" font-family="sans-serif" font-size="12" lengthAdjust="spacingAndGlyphs" textLength="79" x="135" y="71.2559">5分钟诊断故障</text><polygon fill="#FEFECE" filter="url(#f138di7phjcoow)" points="152.5,103.7988,196.5,103.7988,208.5,115.7988,196.5,127.7988,152.5,127.7988,140.5,115.7988,152.5,103.7988" style="stroke: #A80036; stroke-width: 1.5;"/><text fill="#000000" font-family="sans-serif" font-size="11" lengthAdjust="spacingAndGlyphs" textLength="44" x="152.5" y="119.7922">发现故障</text><text fill="#000000" font-family="sans-serif" font-size="11" lengthAdjust="spacingAndGlyphs" textLength="19" x="121.5" y="113.4678">true</text><text fill="#000000" font-family="sans-serif" font-size="11" lengthAdjust="spacingAndGlyphs" textLength="24" x="208.5" y="113.4678">false</text><rect fill="#FEFECE" filter="url(#f138di7phjcoow)" height="33.7988" rx="12.5" ry="12.5" style="stroke: #A80036; stroke-width: 1.5;" width="92" x="42" y="137.7988"/><text fill="#000000" font-family="sans-serif" font-size="12" lengthAdjust="spacingAndGlyphs" textLength="72" x="52" y="159.0547">故障责任鉴定</text><polygon fill="#FEFECE" filter="url(#f138di7phjcoow)" points="66,191.5977,110,191.5977,122,203.5977,110,215.5977,66,215.5977,54,203.5977,66,191.5977" style="stroke: #A80036; stroke-width: 1.5;"/><text fill="#000000" font-family="sans-serif" font-size="11" lengthAdjust="spacingAndGlyphs" textLength="44" x="66" y="207.5911">客户责任</text><text fill="#000000" font-family="sans-serif" font-size="11" lengthAdjust="spacingAndGlyphs" textLength="19" x="35" y="201.2666">true</text><text fill="#000000" font-family="sans-serif" font-size="11" lengthAdjust="spacingAndGlyphs" textLength="24" x="122" y="201.2666">false</text><rect fill="#FEFECE" filter="url(#f138di7phjcoow)" height="33.7988" rx="12.5" ry="12.5" style="stroke: #A80036; stroke-width: 1.5;" width="68" x="10" y="225.5977"/><text fill="#000000" font-family="sans-serif" font-size="12" lengthAdjust="spacingAndGlyphs" textLength="48" x="20" y="246.8535">购买服务</text><rect fill="#FEFECE" filter="url(#f138di7phjcoow)" height="33.7988" rx="12.5" ry="12.5" style="stroke: #A80036; stroke-width: 1.5;" width="68" x="10" y="279.3965"/><text fill="#000000" font-family="sans-serif" font-size="12" lengthAdjust="spacingAndGlyphs" textLength="48" x="20" y="300.6523">处理故障</text><rect fill="#FEFECE" filter="url(#f138di7phjcoow)" height="33.7988" rx="12.5" ry="12.5" style="stroke: #A80036; stroke-width: 1.5;" width="68" x="98" y="225.5977"/><text fill="#000000" font-family="sans-serif" font-size="12" lengthAdjust="spacingAndGlyphs" textLength="48" x="108" y="246.8535">免费处理</text><ellipse cx="132" cy="289.3965" fill="#FFFFFF" filter="url(#f138di7phjcoow)" rx="10" ry="10" style="stroke: #000000; stroke-width: 1.5;"/><line style="stroke: #000000; stroke-width: 2.5;" x1="125.8128" x2="138.1872" y1="283.2093" y2="295.5837"/><line style="stroke: #000000; stroke-width: 2.5;" x1="138.1872" x2="125.8128" y1="283.2093" y2="295.5837"/><rect fill="#FEFECE" filter="url(#f138di7phjcoow)" height="33.7988" rx="12.5" ry="12.5" style="stroke: #A80036; stroke-width: 1.5;" width="130" x="196" y="137.7988"/><text fill="#000000" font-family="sans-serif" font-size="12" lengthAdjust="spacingAndGlyphs" textLength="110" x="206" y="159.0547">需要客户等待1h以上</text><ellipse cx="261" cy="201.5977" fill="#FFFFFF" filter="url(#f138di7phjcoow)" rx="10" ry="10" style="stroke: #000000; stroke-width: 1.5;"/><line style="stroke: #000000; stroke-width: 2.5;" x1="254.8128" x2="267.1872" y1="195.4105" y2="207.7848"/><line style="stroke: #000000; stroke-width: 2.5;" x1="267.1872" x2="254.8128" y1="195.4105" y2="207.7848"/><ellipse cx="174.5" cy="344.1953" fill="#FFFFFF" filter="url(#f138di7phjcoow)" rx="11" ry="11" style="stroke: #000000; stroke-width: 1.0;"/><ellipse cx="174.5" cy="344.1953" fill="#000000" rx="6" ry="6" style="stroke: #7F7F7F; stroke-width: 1.0;"/><line style="stroke: #A80036; stroke-width: 1.5;" x1="174.5" x2="174.5" y1="30" y2="50"/><polygon fill="#A80036" points="170.5,40,174.5,50,178.5,40,174.5,44" style="stroke: #A80036; stroke-width: 1.0;"/><line style="stroke: #A80036; stroke-width: 1.5;" x1="44" x2="44" y1="259.3965" y2="279.3965"/><polygon fill="#A80036" points="40,269.3965,44,279.3965,48,269.3965,44,273.3965" style="stroke: #A80036; stroke-width: 1.0;"/><line style="stroke: #A80036; stroke-width: 1.5;" x1="132" x2="132" y1="259.3965" y2="279.3965"/><polygon fill="#A80036" points="128,269.3965,132,279.3965,136,269.3965,132,273.3965" style="stroke: #A80036; stroke-width: 1.0;"/><line style="stroke: #A80036; stroke-width: 1.5;" x1="54" x2="44" y1="203.5977" y2="203.5977"/><line style="stroke: #A80036; stroke-width: 1.5;" x1="44" x2="44" y1="203.5977" y2="225.5977"/><polygon fill="#A80036" points="40,215.5977,44,225.5977,48,215.5977,44,219.5977" style="stroke: #A80036; stroke-width: 1.0;"/><line style="stroke: #A80036; stroke-width: 1.5;" x1="122" x2="132" y1="203.5977" y2="203.5977"/><line style="stroke: #A80036; stroke-width: 1.5;" x1="132" x2="132" y1="203.5977" y2="225.5977"/><polygon fill="#A80036" points="128,215.5977,132,225.5977,136,215.5977,132,219.5977" style="stroke: #A80036; stroke-width: 1.0;"/><line style="stroke: #A80036; stroke-width: 1.5;" x1="44" x2="44" y1="313.1953" y2="318.1953"/><line style="stroke: #A80036; stroke-width: 1.5;" x1="44" x2="174.5" y1="318.1953" y2="318.1953"/><line style="stroke: #A80036; stroke-width: 1.5;" x1="174.5" x2="174.5" y1="318.1953" y2="333.1953"/><polygon fill="#A80036" points="170.5,323.1953,174.5,333.1953,178.5,323.1953,174.5,327.1953" style="stroke: #A80036; stroke-width: 1.0;"/><line style="stroke: #A80036; stroke-width: 1.5;" x1="88" x2="88" y1="171.5977" y2="191.5977"/><polygon fill="#A80036" points="84,181.5977,88,191.5977,92,181.5977,88,185.5977" style="stroke: #A80036; stroke-width: 1.0;"/><line style="stroke: #A80036; stroke-width: 1.5;" x1="261" x2="261" y1="171.5977" y2="191.5977"/><polygon fill="#A80036" points="257,181.5977,261,191.5977,265,181.5977,261,185.5977" style="stroke: #A80036; stroke-width: 1.0;"/><line style="stroke: #A80036; stroke-width: 1.5;" x1="140.5" x2="88" y1="115.7988" y2="115.7988"/><line style="stroke: #A80036; stroke-width: 1.5;" x1="88" x2="88" y1="115.7988" y2="137.7988"/><polygon fill="#A80036" points="84,127.7988,88,137.7988,92,127.7988,88,131.7988" style="stroke: #A80036; stroke-width: 1.0;"/><line style="stroke: #A80036; stroke-width: 1.5;" x1="208.5" x2="261" y1="115.7988" y2="115.7988"/><line style="stroke: #A80036; stroke-width: 1.5;" x1="261" x2="261" y1="115.7988" y2="137.7988"/><polygon fill="#A80036" points="257,127.7988,261,137.7988,265,127.7988,261,131.7988" style="stroke: #A80036; stroke-width: 1.0;"/><line style="stroke: #A80036; stroke-width: 1.5;" x1="174.5" x2="174.5" y1="83.7988" y2="103.7988"/><polygon fill="#A80036" points="170.5,93.7988,174.5,103.7988,178.5,93.7988,174.5,97.7988" style="stroke: #A80036; stroke-width: 1.0;"/><!--
@startuml

start

:5分钟诊断故障;

if (发现故障) then (true)
  :故障责任鉴定;
if (客户责任) then (true)
  :购买服务;
  :处理故障;
else (false)
  :免费处理;
  end
endif

else (false)
  :需要客户等待1h以上;
  end
endif

stop

@enduml

PlantUML version 1.2019.03(Sun Mar 10 19:04:44 CST 2019)
(GPL source distribution)
Java Runtime: OpenJDK Runtime Environment
JVM: OpenJDK 64-Bit Server VM
Java Version: 1.8.0_161-b14
Operating System: Linux
OS Version: 3.10.0-327.22.2.el7.x86_64
Default Encoding: UTF-8
Language: en
Country: US
--></g></svg>